<svg xmlns="http://www.w3.org/2000/svg" viewBox="0 0 2898 1723.97"><defs><style>.cls-1{isolation:isolate;}.cls-2{fill:#754c24;stroke-width:15.78px;}.cls-10,.cls-2,.cls-3,.cls-4,.cls-6,.cls-8,.cls-9{stroke:#000;stroke-miterlimit:10;}.cls-3,.cls-4{fill:#666;}.cls-3{stroke-width:5.11px;}.cls-4{stroke-width:6.2px;}.cls-5{fill:#333;fill-rule:evenodd;}.cls-6,.cls-7,.cls-8,.cls-9{fill:#603813;}.cls-6{stroke-width:6px;}.cls-7{opacity:0.75;mix-blend-mode:soft-light;}.cls-8{stroke-width:15.27px;}.cls-9{stroke-width:18px;}.cls-10{fill:none;stroke-width:16px;}</style></defs><title>logo_html</title><g class="cls-1"><g id="Layer_3" data-name="Layer 3"><rect class="cls-2" x="596.76" y="243.2" width="1779.13" height="363.87" rx="6.89"/><rect class="cls-3" x="1890.55" y="747.42" width="187.94" height="681.83" transform="translate(3021.86 -1534.88) rotate(90)"/><rect class="cls-4" x="971.22" y="703.16" width="276.47" height="681.83" transform="translate(2102.52 -704.08) rotate(90)"/><path class="cls-5" d="M1700,973.5s42,2.66,52.51,4.4,16.94,3,38.63,3.46,52.85,2,52.85,2l7.79.47-2,2.27s-21.68-.86-46.42-1.49-27.15-1.27-46.75-3.92-27.78-3.77-40.32-4a184.78,184.78,0,0,1-19-1.08Z" transform="translate(-51 -638.7)"/><path class="cls-5" d="M1779,1020.27c1.55.85,4.64,1.88,5,.94s1.91-3.37,1.91-2.9,1-.94,1.45-1.69,1.09-1.77,1.37-1.3.72-.38,1.09-1.5a2.76,2.76,0,0,1,1.81-1.5,13.43,13.43,0,0,0,1.18-2.34,8.58,8.58,0,0,1,1.64-2.43,8.58,8.58,0,0,0,1.82-2.06c.36-.84,2.09-2.34,3.36-4.21s1.54-2.62,3.72-2.9,4-.73,4.36-.68.09.93.09.93,1.13-.23,1.09.38-1.37,1.17-2.32,1.31a3.64,3.64,0,0,0-1.68.79s1.09-.42,1.55-.23.58,1.12-1.73,2.57-3.08,3.27-3.76,3.87a1.31,1.31,0,0,0-.46,1.31s-.18,0-.59.84-1.72,3.7-2.08,4.49.09,1.12-.78,2.38a12.81,12.81,0,0,0-1.36,2.52c-.36.8,0,.66-.54,1.69s-.54,1.63-1.32,2.14-2,2-1.77,2-.09,1.21-1,1.77-.68,1.17-.68,1.17.09.56-.72,1-1,1.22-.73,1.4-.14.52-.91.42,2.13,1.59-.18,1.31-.86.84-1.9.8-1.77-.24-1.91.28-.86.46-1.63.32a1,1,0,0,0-1.23.66c-.13.42-.68,0-1.22,0a7.41,7.41,0,0,0-1.91.65s.14.37-.68-.23-1.18,0-1.27.46-.22-.14-1.09-.6-1.09.19-1,.7-.36,0-1.09-.7-1.59-1.59-1.59-.7.86,6.49.86,6.49a15.19,15.19,0,0,1,3.45-.47c3.13-.28,3-1.21,6.26-.42s3.77.8,5.17.75a9.76,9.76,0,0,1,4.39.22c2.55.66,6,3.28,6,3.28s.18-.66,2.09-1.59,2.63-1.31,4.09-1.31a8.79,8.79,0,0,1,2.36.28s.17-.13,1.08-.13,1.45.23,1.36.47.36,0,.86.18,1,.8.09,1.26a14.07,14.07,0,0,1-2.31.85s1.09-.24,1,.56.41.84-1.45,1.35-2.27-.23-3.63.94-2.68,1.35-4.4,1.91-3.45.84-4.22.51a5.09,5.09,0,0,1-.95-.46,11.47,11.47,0,0,0-1.82.28,2.62,2.62,0,0,1-1.59-.38.88.88,0,0,0-1.08.43c-.1.28-.41.28-1-.19s-1.22-.47-1.27-.1-.32.57-1-.09-1.41-.47-1.41-.09-.54,0-1.08-.38-1,.33-1,.61-1.32-.65-1.73-.84-2-.19-1.77.23-.54.24-1,.24-.5.84-1,.7,0,.79-.59.6a4,4,0,0,0-1.82.33s-.45.47.68.47,2.45-.37,2.5-.09-.77.14.36.46,1-.79,2.22.14a3.44,3.44,0,0,0,2.45,1.08,6.38,6.38,0,0,1,2.73.37c.9.47,2.67,2.57,3.85,3.23s2.5,2.66,4.76,5.28a33.37,33.37,0,0,1,3.82,5c.72,1.22,2.26,1.31,3.94,1.92s1.09.75,3.13.75,2.82-.89,3,0-1.64,1.4-1.64,1.4a5.08,5.08,0,0,1,2,1.17c1.14,1,1.68,2.19,1,1.82s-2-1.17-2-1.17,1.59,1.45,1.54,2-3-1.31-3-1.31,1.77,1.17,1.72,1.92-2.94-1.45-2.94-1.45,1.81,1.07,1.36,1.59-2.18-.61-2.86-1.17-2-.65-3.31-.84a24.21,24.21,0,0,0-2.45-.14,26.4,26.4,0,0,1-4.22-.8s-1.18.1-1.36.33-.41.19-.77-.65-.68-.66-.68-.14,0,.51-.64-.47-1.22-.75-1.22-.47,0,.33-.41-.56-1.09-1.17-1.09-.79.13.32-.32-.75-.27,0-.91-1.5-1-.18-1.22-.09-.64-1.21-.68-1.87-.68-1-.91-.6-1-.89-1.18-1.73-1.4-1.12-1.68-.61-1.22,0-1.31-.33-.59-.18-1,.42-1,.42-.82,0-.68-.18-.9.19-.5-.19-.46-.51-1.45.42-1.45.42l.41-1.12s-1.23,1.21-1.45.46,0-1,0-1a1.35,1.35,0,0,0-.82.33c-.36.33-.31-.56-.31-.56s0,.28-.77.37-.91-.47-.46-.79-.54-.47-1.18-.19-1,.14-.59-.28-.72-.42-1.08-.28-.91-.19-.87-.42-1.36,0-1.86,0-.27-.93-.27-.93a2.16,2.16,0,0,0-1.5-.14c-.59.28-1,0-.86-.33s-.22-.42-1.31-.37-1.64.05-1.28-.47-.13-.7-.86-.51-1.49.09-1.18-.52,0-.42-1.08-.88-.78-.61-.91-1.31-1.14-.23-1.14-1.26.87-.42.1-1.4a4.61,4.61,0,0,1-.93-1.87,16.7,16.7,0,0,0,.27-2.72c-.09-.56-1.36.66-1.82.75s.18-2.15.18-2.9.12-1.12-.08-.77-.21,0-.21-.35-.16-.35-.27-.54a1.16,1.16,0,0,1,0-.79c.07-.33,0-1.16-.14-.75s-.27,1.12-.29.35-.2-1-.45-.88-.41.25-.23-.42-.09-1.45.14-2,0-.74-.23-.49-.34-.35-.34-.53-.5.25-.56-.26a7.42,7.42,0,0,1,0-1.49.91.91,0,0,0-.37-.86c-.22-.19-.22-.24-.22-.63s.2-1.33-.07-1.17-.32.28-.38-.53-.19-1.56-.62-1.42-.38-.21-.49-.61-.73.07-.66-.53a9.77,9.77,0,0,0,.18-1c0-.53.18-.79-.45-1s-.68,0-.57-.56.41-.38-.29-1.56-.29-1.31-.2-1.77a1.26,1.26,0,0,0-.16-1.15c-.3-.44-.07-.67,0-1.14s0-.32-.27-.86.16-1.87.25-2.9.82-.28.09-1.68a21.22,21.22,0,0,1-1.72-3.88c.09-.24.68,1,.22-.42s-1.13-2.29-.86-2.43-1.9-2.8-1.13-2.1,1.36.74.09-1a21,21,0,0,1-2-3.23c.18.28,1,.14.23-1.4s-1.18-3-.86-2.71-.64-1.87-1-2.8-.91-2.2-.55-2.06,0-1.73-.45-2.62-1.31-1.77-.72-1.63-.5-1.12-.91-1.59,0-.61-.91-1.92a9.35,9.35,0,0,1-1.63-2.89c0-.61-.28-.09-.5-1.87s-.27-2.94.41-3,1.18.1,1.18-.14a1,1,0,0,1,.59-.75,2.27,2.27,0,0,1,1.13,0,1,1,0,0,1,1-.46,2.71,2.71,0,0,0,1.86,1c.46.46.55,1.86.73,2.38s0,.42.64.7,1.45,2.15,1.4,2.8a5.24,5.24,0,0,1-.23,1.22s.5-.47,1.18,1.26,1.23,2.1,1.23,2.8.59,2.62.86,2,.23-.65.41.28.81,1.27.91,2.06.81.05.81.89.64,1.68,1.14,2.76,1.45.88,1.58,1.86a7.07,7.07,0,0,0,.87,2.15c.27.66,1.31,2.52,1.31,2.15s.05.84.09,1.31.68,1.08.73.47.54-.66.54,1,.19,1.07,1,2,1.72,2.81,1.72,2.06,1-.14,1,.28,0-.56.73.7a4.74,4.74,0,0,0,1.45,1.64,4.57,4.57,0,0,0,.81,1c.46.37,1.23.75,1.28.18s-.1-.74.54-.56,1.18.28,1.23,0-.41-.37.63-.28.86.19,1.54-.23a1.6,1.6,0,0,1,1.59-.19c.32.19.68.47.77,0s.64-.57,1.27-.19,1.77.47,1.77.23.18-.18.86.19a6.84,6.84,0,0,0,2.14.47,4.49,4.49,0,0,1,2.49,2c.95,1.26.91,1.21,1.86,2.52,1.24,1.7-.47,3.92.36,3.79Z" transform="translate(-51 -638.7)"/><path class="cls-5" d="M1824.93,1047.88s-4.07,3.76-4.91,6.37-2.39,6.36-2.39,6.36a24.53,24.53,0,0,0-1.4-5.06c-.85-1.74-2.2-3.18-2.83-3.33a4.65,4.65,0,0,0-3.58.29c-1.54.87-4.77,3.47-3.44,3s.49.28.07,1.37.14.43.14,1.3-.21,2.82-.14,3.39.7,1.3.14,2.46.35,1.51,1.06.94,1.4-.07,2.59-.65,2-2.82,2-2.82a3.54,3.54,0,0,1,1.06,1.59c.14.79.77,2.38.49,2s-.7.87,0,1.59,1.82,2.67,1.19,2.24.07,1,.42,1.66.83,1.49.83,1.49-.21.51.11.69.63.22.38.61,0,.43.25.51.42.21.35.64.17.26.42.33.28.43.35.69.7,0,.91.21.14.33.49.62.35.14.8.17,1.3-.46,1.61-.36a1,1,0,0,0,1.09-.25,2.22,2.22,0,0,0,1-1.41,4.31,4.31,0,0,1,.56-1.33s0,.83,0,1.08.73,0,.59.58-.49,1.26-.21,1,.53-.36.49.14a.39.39,0,0,0,.42.47s.11.22-.07.94.46.5.46.5.31-.21-.07.58-.07.8.24.4.7-1,.67-.07,1,.25,1,.25a.83.83,0,0,0-.25.83c.14.5,0,.36.91.07s1.47-.32.74.33-1.26.68.63.32,3.75-.36,2.13.29-4.48,1.51-2.1,1.08,6.48-1,4.17-.29-6.62,2-4.31,1.55,3.58-.18,2.84.29-.7.47.25.47,0,.43-.32.87,1.33.61.32,1-1.65.93-.74.93,1,.36.42.83.53.54.88.47-.07.33-.42,1,.1.07.77-.07.63,0,.1,1-1.12,1.55-.28,1.12,1-.36-.21,1-.8,1.59-.38,1.3-.53.68-.91,1.73-.08.87.38.65-.49,1.37-.74,1.87-.28.36.36.11.45.22-.11,1,.28.43.28.43-1.79,2-1.12,1.77.87,0,.35.75-1.12,1.63-.56,1.19-.07.58-.35,1.26.35.22.7.37-.1.54-.39.65-.8,0-.1.57.46,1.12.31,1.23-.1-.22.42.47.49,1.19.18,1.19-1-.36-.21.36,0,.9.18,1.37.52.4.77.79-.92-.54-.43.51a6.31,6.31,0,0,0,1.48,2c.21.11-.74,0-.32.65s1.23,1.52.67,1.3-1.12-.54-.32.33,1.19,1,1,1.37-.07.18.39.79-.7,0-.28.83.87,1.26.66,1.73-.24.32.84,1.23-.38.36,0,.93.91.8,1.09,1-.32-.54-.11.4.74,1,.81,1.29,0,.37-.18.66-.42.46.28.68.63.25.39.5-.35.15.07.4-1,.25-.56.76,1.61.54,1.61.54-.81.25-.42.47.87.14.45.47-.56.47-.14.54.18.25-.14.72.56.29.56.29a5.8,5.8,0,0,1,0,1.3c-.11.57.21.07.53-.08s.13-.5.31.8a10.88,10.88,0,0,0,.38,3c.53,1.88.77,4.47,1,5a1.28,1.28,0,0,1,.07.87s-.56-.15-.71,0a1.51,1.51,0,0,1-.38.33s.07-.15-.35-.4a1.28,1.28,0,0,0-.81-.18s-.24-.54-.31-.29a1.86,1.86,0,0,0,.52,1.73,2.71,2.71,0,0,1,.81.76c.28.32,1.51.07,1.51.07a4.16,4.16,0,0,0,.84.25c.21,0,.31-.11.63,0s.24.18.94-.44,1.47-.75,1.61-1.47a12.11,12.11,0,0,0-.14-3.65,7.09,7.09,0,0,0-.56-2.63c-.52-1.23.39-.22.39-.54a9.7,9.7,0,0,0-1-2,1.45,1.45,0,0,1,0-1.44,11.17,11.17,0,0,0-.38-1.26c-.28-.8-.6-1.62-.32-1.62s.25-.08-.21-.91a6.29,6.29,0,0,1-.59-1.87s-.25-.79-.35-1.3-.7-1.8-.49-1.88-.18-.61-.39-1.19-.53-1.58-.53-1.58.46.07.11-.8a3.2,3.2,0,0,1-.28-1.84c.07-.47-.07-.54-.25-1.26s-.84-1.48-.87-1.91.14-.25.07-.9-.53-.87-.63-1.44a8.72,8.72,0,0,1-.14-1.66,9.18,9.18,0,0,0-.39-1.84,4.08,4.08,0,0,1-.1-1.12,2.14,2.14,0,0,0-.07-1.16,5.74,5.74,0,0,1,.07-2.45c.14-.61.63-.32.63-1.44s-.28-1.05.07-1.91a5.42,5.42,0,0,0,.45-1.59c0-.18-.07-1.08.25-.75s.28,1,.42-.65.39-2.74.56-2.1.28.94.42-.72.32-.72.49-.36.49,1.19.67-.79.8-3.57.94-2.2.28,2.09.49,1.08.42-.32.42.25.21.29.46-.43.35-.32.35.36.49,0,.49,0,.63.14,0,1.26-1.29,1.95-.77,1.48.63-.29.49.14.28.61.67.25.52-.25.21.47-.63,1.08-.25,1-.56.72-.14,1,.11,1,0,1.33.77-.07.77-.07a1.67,1.67,0,0,0-.39,1.08c0,.62.32,0,.63,0s.28-.18.18,1-.11,1.3.07,1.4.07.33.17.76.74.33.74.33a2.49,2.49,0,0,0,.21.68c.17.4.56.36.7.07s.35.18.42.58.46.22.46.22.17.32.38.75.81,0,.81,0a6.12,6.12,0,0,1,.59.93.42.42,0,0,0,.77.08c0-.18.53.29.53.57s.66.37.66.15.32.4.49.72.67-.14.7.36.39.25.42.07.49-.46,1,.15.87,1.08.87.65.53-.15,1,.54.88.36.88.36.07,0,.62.47a1.08,1.08,0,0,0,1,.32,1.74,1.74,0,0,1,.73.69c.21.43.56.5.53.32s.24.47.52.79.56-.1.56-.1l.67.83c.35.43.7.25.7.25s.52.5.91.83.31.65.73,1.08,1,.5,1.12,1,1.3,1.19,1.3,1.19a3.74,3.74,0,0,1,.21,1c0,.46-.14,1-.42.68s-.59-.22-.63.07-.28.22-.56.11-.42-.32-.42.43a2.57,2.57,0,0,0,.84,2.35c1,1,.77,1.15,1.89,1s.84-.18,1.65-.29a2.37,2.37,0,0,0,1.36-.57c.21-.18.77-.33.91-.83s.53-.47.07-1.34a12.66,12.66,0,0,1-1-2.34c-.07-.4-.42-.22,0-.69s.6-.68.46-1.22a3.74,3.74,0,0,0-1.12-2.06,13.22,13.22,0,0,0-2.14-2.45c-1-.76-1.54-1.08-1.54-1.08s1.26.36.14-.47a17.31,17.31,0,0,0-2.56-1.44,20,20,0,0,1-3.18-2.06c.31.07.35-.29-.32-.69s-2-.61-2.06-1a1,1,0,0,0-.57-.94c-.42-.25-.21-.36-1-.79s-.87-.44-1.68-.94-.49-.43-1-1-.91-.43-.88-1.37a8.29,8.29,0,0,0,0-1.62c-.07-.72-.25-.25-.14-1a5.76,5.76,0,0,0,0-1.33c0-.51.07-1.15.31-.94s.42-.29.42-.54.32,0,.49.11.21-.07.32-.43.42-.54.63-.44.35.18.59-.57.35-.22.46-.76,0-.54.07-.94a.73.73,0,0,0-.07-.61.6.6,0,0,0,.49-.33,1.92,1.92,0,0,0,.07-1,1.1,1.1,0,0,0,.38-.47c.07-.25.11-.07.56-.54a1.17,1.17,0,0,0,.46-.94,8.35,8.35,0,0,0,.39-1.8,6.79,6.79,0,0,1,.31-1.51c.07-.51-.38-.69-.07-1.12a1,1,0,0,0,.25-.94,2.12,2.12,0,0,1,0-.94,2.18,2.18,0,0,0-.14-1.19,1.82,1.82,0,0,1-.21-.94c0-.61-.07-1-.35-.93s-.39,0-.63-.65-.53-.76-.7-.72-.42-.29-.81-1.09a9.52,9.52,0,0,0-.55-1,7.09,7.09,0,0,1-.74-.61c-.39-.37,0-.47-.56-.33s-.67-.14-1.19-.43-.67-.51-1.19-.33a1,1,0,0,1-1-.14c-.32-.18-.46-.44-1-.33a4,4,0,0,1-1.22,0,6.58,6.58,0,0,1-.75-1.7c-.56-1.52-.35-1.59-.91-1.88s0-.07-1.27-1.8-.35-2.82-1.26-4.19a12.89,12.89,0,0,1-1.19-2.1,6.13,6.13,0,0,0-.77-2.16l-.91-1.88a5.39,5.39,0,0,0-.42-1.74c-.5-1.58-.36-2.45-.57-1.8s-1.75-.87-1.82-1.66-.63-2-.63-1.45-1.26-.58-1.54-1.8-.14-1.74-.7-1.52-1.13,0-1.83-.72-.07-1-.77-.8-.21,1.59-2-.72-2.39-2.24-2.88-4.69a54.24,54.24,0,0,1-1-5.5c-.49-3.46-.7-2.23-.63-4.33s0-1.8,0-2.53v-5.34c0-2.1-.21-1.23.56-3.47a33.09,33.09,0,0,0,1.33-4.19c.21-1.08,0,.58.7-2.09s1.69-3.25,1.27-5.64,1.61-4,1.12-5.92a22.39,22.39,0,0,1-.56-5.49,14.89,14.89,0,0,0-.56-4.84c-.5-1.37-.85-2.82-1.41-4.12s-.49-1.87-1-2.88a14.41,14.41,0,0,0-1.26-1.81,4.91,4.91,0,0,0-3.3-1.52,7.53,7.53,0,0,0-3.51.65c-.7.43-1,2.68-1,2.68l2.74-.58a12.41,12.41,0,0,1,.35,2.6c-.07.79-.77,2.81-1.12,2.09s-.7-.43-.7-.43a2,2,0,0,0,.7,2c1,.65,2.24,1.08,3.08-.07s1-3.83,1-3.83a41.84,41.84,0,0,1,2,7.22c.21,2.31,1.19,8.38.21,11.27s-2,5.85-1.75,5.27-.07.29-.5,1.81a29.23,29.23,0,0,1-1,2.89,16.57,16.57,0,0,0-2.17,6.43c-.35,3.54-2.25,8-2.25,9.39s-.35,5.71.35,8.23S1824.93,1047.88,1824.93,1047.88Z" transform="translate(-51 -638.7)"/><path class="cls-5" d="M1713.18,976.07c.18-1.43-.34-2.68,2.43-3.58s5.38-.53,5.56,9.12,3.64,20.37,3.81,27.35,2.43,27.88,2.43,34a39.16,39.16,0,0,0,1.39,10.55s3.47.89,2.6,6.79-2.77,13-2.77,18.77-3.47,10.18-6.94,11.62a13.69,13.69,0,0,1-8.16.71c-1.73-.36-5.9-2.68-8.85-6.25s-3.3-4.12-3.3-4.12-.52.18-5.9-.53-8-1.43-11.8-4.65-8-6.43-8.33-7.68a5,5,0,0,1-.17-2.15,11.14,11.14,0,0,0-1.65-2.32c-1.13-1.25-1.21-1.78-1.13-2.59s1.22-1.51,1.22-1.51.08-.27.78-.72a2.68,2.68,0,0,1,2-.44c.78.09,2.95,1.25,3.9,1.51s1.13,1.43,1.21,2.86,3,4.2,3.91,4.29,2.09-.19,5.91-1.26a43.76,43.76,0,0,1,9.54-1.07l1.39,2.14s-1.73-5.72-2.43-7.14-1.39-1.26-2.78-4.47,0-5-1-6.62-3.29-2.32-2.08-4.29,6.6,2.86,6.6,2.86,2.08,7,2.25,7.87,5.21,7.15,5.55,8,1.91,1.25,1.91,1.25a20.8,20.8,0,0,1,0-3.57c.18-2,.18-3.94.18-3.94a9.31,9.31,0,0,1-2.61-5.18c-.69-3.57-1.56-6.43.87-8.4a62.9,62.9,0,0,1,7.46-4.64,99.51,99.51,0,0,1-.17-10.37c.17-6.61,1.21-9.65,1.21-9.65s-1.28-2.31-.93-10.17.35-9.3.35-15a69.71,69.71,0,0,1,.34-8.23l-2-2.87,2.25-2s1.57-3.76-.17-4.29A8.1,8.1,0,0,0,1713.18,976.07Z" transform="translate(-51 -638.7)"/><path class="cls-5" d="M1851.74,983.79l-2,2.28s-7.59-.3-18.92-.68l-6.28-.2-2.18-.07-.64,0c-5.71-.17-12-.35-18.4-.52-24.73-.63-27.16-1.27-46.75-3.92-6.83-.92-12.28-1.66-17-2.24-2.44-.3-4.68-.56-6.83-.78-4.13-.42-7.89-.69-11.94-.85l-3.1-.1-1.45,0a183.2,183.2,0,0,1-19-1.07l2.71-2.1s5.67.36,13.36.91l7,.5c5.19.38,10.74.81,15.84,1.25l1.82.16c6.22.55,11.58,1.11,14.5,1.59,10.5,1.74,16.94,3,38.62,3.46,10,.22,21.9.65,31.92,1.06l5.42.22c9.08.38,15.52.69,15.52.69Z" transform="translate(-51 -638.7)"/><path class="cls-5" d="M1739.54,978.42c-2.44-.3-4.68-.56-6.83-.78.07-.3.22-.47.47-.5.68-.09,1.18.09,1.18-.14a1,1,0,0,1,.59-.75,2.3,2.3,0,0,1,1.14,0l.06-.1a1.07,1.07,0,0,1,1-.36.92.92,0,0,1,.84.52.7.7,0,0,1,.07.22.94.94,0,0,1,1,.28A3.67,3.67,0,0,1,1739.54,978.42Z" transform="translate(-51 -638.7)"/><path class="cls-5" d="M1830.72,985.26l.07.13-6.28-.2c-.06-.3-.11-.51-.11-.51l-2.07.44-.66.14s0-.06,0-.16c.08-.52.37-2.15,1-2.51a2,2,0,0,1,.36-.17,8.58,8.58,0,0,1,3.15-.48,4.7,4.7,0,0,1,2.27.7,3.39,3.39,0,0,1,1,.82A14.88,14.88,0,0,1,1830.72,985.26Z" transform="translate(-51 -638.7)"/><path class="cls-5" d="M1720.77,976.79l-3.1-.1a1,1,0,0,0-.67-.62,8.08,8.08,0,0,0-3.82,0c.07-.59,0-1.15.14-1.67.16-.73.66-1.38,2.29-1.91,1.88-.6,3.69-.64,4.7,2.41A11.91,11.91,0,0,1,1720.77,976.79Z" transform="translate(-51 -638.7)"/><rect class="cls-6" x="698.56" y="498.52" width="719.78" height="52.37" rx="11.95"/><rect class="cls-6" x="1573.63" y="496.41" width="719.78" height="52.37" rx="11.95"/><path class="cls-7" d="M2420.23,1222.86,647.76,980.16c0-2.66,3-4.84,6.67-4.84h1765.8c3.66,0,6.67,2.18,6.67,4.84V1218C2426.9,1220.68,2423.89,1222.86,2420.23,1222.86Z" transform="translate(-51 -638.7)"/><path class="cls-8" d="M2545.29,986c0,1-8.22,1.53-20.35,1.81-12.52.29-29.21.3-45.36.2-7.33-.05-14.54-.12-21.2-.2-15-.18-27.2-.39-31.49-.46l-1.58,0H659.51c-.64,0-5,.11-11.75.27-32.09.78-118.39,2.76-118.39-.27l60.87-169.67L652.85,653a6.69,6.69,0,0,1,6.66-6.67h1765.8a6.5,6.5,0,0,1,2.46.48A6.68,6.68,0,0,1,2432,653l55,157.26,7,21.06,25.67,77.38Z" transform="translate(-51 -638.7)"/><path class="cls-7" d="M2494,831.32l-7-21.06L2432,653a6.68,6.68,0,0,0-4.21-6.19,6.5,6.5,0,0,0-2.46-.48H2045.22q-99.67,48.23-214.25,95.84-11.91,5-24,9.89-152,62.07-331.32,122.66-22.41,7.57-45.3,15.09-150.24,49.41-320.28,97.48H2425.31l1.58,0c4.29.07,16.48.28,31.49.46,6.66.08,13.87.15,21.2.2,16.15.1,32.84.09,45.36-.2,12.13-.28,20.35-.84,20.35-1.81l-25.63-77.26Z" transform="translate(-51 -638.7)"/><path class="cls-9" d="M2902.67,1548.9c0,.42,0,.85,0,1.27a740.66,740.66,0,0,1-10.5,125.3c-16.44,95-51.74,178.63-103.18,251.71a4.21,4.21,0,0,0-1.83,2.58c-35.14,49.39-77.68,93.93-126.77,133.89-252.42,205.49-677.95,290-1160.38,290-95.39,0-188.56-3.31-278.61-10.21q-12.41-.93-24.72-2C1095.8,2333,999,2319.86,907.6,2301.76l-3.79-.75q-63.31-12.66-123-28.56c-81-21.6-156.74-47.82-226.08-79h0c-148.62-66.77-268-156.23-347.42-271.7-70.59-102.56-109.7-225.65-109.92-371.6,0-.42,0-.85,0-1.27Z" transform="translate(-51 -638.7)"/><path class="cls-10" d="M112.57,1664.4s1051.9,57.17,1405.54,58.57c341.66,1.35,1375.65-47.58,1375.65-47.58" transform="translate(-51 -638.7)"/><path class="cls-9" d="M2940,1216.42v324a8.51,8.51,0,0,1-8.49,8.49l-28.85,1.27c-82.08,3.59-328.56,14.22-600,24.42-148.17,5.59-303.76,11-444.09,15.14-47,1.38-92.29,2.6-135,3.63-21.27.51-41.91,1-61.8,1.38-64.35,1.33-120.93,2.09-166.21,2.09-13.07,0-27.1-.06-42-.19-351.39-2.94-1190.19-39.17-1356.24-46.47-18.68-.81-28.85-1.27-28.85-1.27a8.51,8.51,0,0,1-8.49-8.49v-324a8.51,8.51,0,0,1,8.49-8.49s1099.85,37.83,1466.47,37.83c349.14,0,1396.55-37.83,1396.55-37.83A8.51,8.51,0,0,1,2940,1216.42Z" transform="translate(-51 -638.7)"/><path class="cls-10" d="M141.9,1794.17c172.14,9.5,344.14,17.5,517.14,25.5,166,8,331,15,497,21q99,4.5,198,6c81,3,161,3,242,1,421-7,840-27,1259.6-46.12" transform="translate(-51 -638.7)"/><path class="cls-10" d="M205.1,1921.66c427.94,21,855.94,44,1283.94,54,265-1,528-12,793-22,164-5,327-14,490.76-20.49" transform="translate(-51 -638.7)"/><path class="cls-10" d="M335.76,2057C492,2065.67,648,2072.67,805,2078.67c188,8,375,15,563,21,66,3,132,3,198,1,367-6,733-20,1098.65-37.22" transform="translate(-51 -638.7)"/><path class="cls-10" d="M2431.78,2198.81C2150,2208.68,1869,2222.68,1587,2225.68c-77.42,1.12-154.79.83-232.13-.45-266.92-4.43-533.44-20.71-800.22-31.75" transform="translate(-51 -638.7)"/><path class="cls-7" d="M2931.51,1207.93H2690.77a4.61,4.61,0,0,1-4.71,3.82c-22.55,0-45.09-1-67.65-1.1-62.14,105-147.61,211.72-262.78,317.28q-11.41,10.48-23.26,21-14.52,12.87-29.67,25.69-3.47,3-7,5.89-76.21,64.05-168.09,127.15-7.21,4.95-14.55,9.89-92.15,62.07-200.81,122.66-13.59,7.58-27.46,15.09-111.32,60.4-240.64,118.76-18,8.09-36.36,16.14-126.57,55.47-271,108.5-37.47,13.73-76.21,27.27Q1132.37,2170.77,990,2213.4q-80.58,24.07-165.88,47.36h0q-21.51,5.88-43.31,11.69,59.67,15.93,123,28.56l3.79.75c91.41,18.1,188.2,31.21,289.07,39.72q12.32,1,24.72,2c90,6.9,183.22,10.21,278.61,10.21,482.43,0,908-84.53,1160.38-290,49.09-40,91.63-84.5,126.77-133.89a4.21,4.21,0,0,1,1.83-2.58c51.44-73.08,86.74-156.69,103.18-251.71a740.66,740.66,0,0,0,10.5-125.3l28.85-1.27a8.51,8.51,0,0,0,8.49-8.49v-324A8.51,8.51,0,0,0,2931.51,1207.93Z" transform="translate(-51 -638.7)"/></g></g></svg>